<svg width="30" height="31" viewBox="0 0 30 31" fill="none" xmlns="http://www.w3.org/2000/svg">
<rect x="0.390137" y="0.664062" width="29.5498" height="29.5498" rx="14.7749" fill="black"/>
<mask id="mask0_4280_12077" style="mask-type:luminance" maskUnits="userSpaceOnUse" x="5" y="4" width="20" height="23">
<path d="M24.5002 4.63281H5.83008V26.2449H24.5002V4.63281Z" fill="white"/>
</mask>
<g mask="url(#mask0_4280_12077)">
<path d="M24.5002 4.63281C24.5002 4.63281 17.7 6.3047 15.0418 7.03072L10.1965 8.16767L5.84146 7.03072C5.84146 7.03072 5.83008 10.3317 5.83008 12.0155L10.2323 13.2324C10.2323 13.2324 24.5002 9.61503 24.5002 9.71144V4.63281Z" fill="white"/>
<path d="M22.124 11.2666L10.1522 14.3044L5.83008 13.1267L5.84139 17.9789C6.94771 18.3806 10.1916 19.357 10.1916 19.357L22.124 16.3456V11.2666Z" fill="white"/>
<path d="M10.2531 20.4166L5.83008 19.3482C5.83008 19.3482 5.84146 20.3701 5.84146 21.7889V24.3651L10.1777 25.5244L24.5002 21.9807V16.9248L10.2531 20.4166Z" fill="white"/>
</g>
</svg>
