<svg width="30" height="31" viewBox="0 0 30 31" fill="none" xmlns="http://www.w3.org/2000/svg">
<rect x="0.390137" y="0.679688" width="29.5498" height="29.5498" rx="14.7749" fill="white"/>
<mask id="mask0_4253_13952" style="mask-type:luminance" maskUnits="userSpaceOnUse" x="5" y="4" width="20" height="23">
<path d="M24.5002 4.64844H5.83008V26.2606H24.5002V4.64844Z" fill="white"/>
</mask>
<g mask="url(#mask0_4253_13952)">
<path d="M24.5002 4.64844C24.5002 4.64844 17.7 6.32033 15.0418 7.04635L10.1965 8.18329L5.84146 7.04635C5.84146 7.04635 5.83008 10.3473 5.83008 12.0311L10.2323 13.248C10.2323 13.248 24.5002 9.63065 24.5002 9.72706V4.64844Z" fill="black"/>
<path d="M22.124 11.2822L10.1522 14.32L5.83008 13.1423L5.84139 17.9945C6.94771 18.3962 10.1916 19.3726 10.1916 19.3726L22.124 16.3612V11.2822Z" fill="black"/>
<path d="M10.2531 20.4322L5.83008 19.3638C5.83008 19.3638 5.84146 20.3858 5.84146 21.8045V24.3808L10.1777 25.54L24.5002 21.9964V16.9404L10.2531 20.4322Z" fill="black"/>
</g>
</svg>
