<svg width="330" height="382" viewBox="0 0 330 382" fill="none" xmlns="http://www.w3.org/2000/svg">
<g clip-path="url(#clip0_184_16)">
<path d="M330 0C330 0 209.804 29.5511 162.819 42.3837L77.1779 62.4795L0.201242 42.3837C0.201242 42.3837 0 100.729 0 130.491L77.8103 152C77.8103 152 330 88.0619 330 89.766V0Z" fill="black"/>
<path d="M288 117.265L76.3954 170.959L0.000488281 150.142L0.200487 235.907C19.7549 243.007 77.0923 260.265 77.0923 260.265L288 207.037V117.265Z" fill="black"/>
<path d="M78.178 278.997L0.000488281 260.113C0.000488281 260.113 0.201648 278.176 0.201648 303.253V348.789L76.8451 369.279L330 306.644V217.279L78.178 278.997Z" fill="black"/>
</g>
<defs>
<clipPath id="clip0_184_16">
<rect width="330" height="382" fill="white"/>
</clipPath>
</defs>
</svg>
